<svg class="icon" viewBox="0 0 1024 1024" xmlns="http://www.w3.org/2000/svg" width="200" height="200"><path d="M815.183 1004.78a83.495 83.495 0 01-24.182-3.466l-283.727-86.016c135.483-152.576 332.564-374.31 334.454-376.674 26.545-26.151 40.645-62.385 38.676-99.643V78.69l115.082 261.986c9.767 16.463 11.421 36.549 4.49 54.35l-1.025 3.94c-3.78 15.517-92.947 522.554-93.893 527.674a96.098 96.098 0 01-89.796 78.14zm-457.65-46.237a87.434 87.434 0 01-65.85-30.878L46.63 629.13a115.79 115.79 0 010-149.347c3.545-4.253 354.226-423.305 360.133-430.237a72.468 72.468 0 0159.55-30.326h323.741c27.176 0 43.323 20.007 43.323 53.642V438.98a58.604 58.604 0 01-20.243 49.625l-2.442 2.678c-10.083 11.185-383.685 432.049-387.545 436.381-16.305 19.299-40.25 30.72-65.614 31.035l.157-.157zm252.929-792.025c-54.351 0-98.462 44.11-98.462 98.462v1.339a98.383 98.383 0 00196.687 0V264.9a98.54 98.54 0 00-98.147-98.225v-.158z"/></svg>