<svg t="1600940782468" class="icon" viewBox="0 0 1024 1024" version="1.1" xmlns="http://www.w3.org/2000/svg" p-id="2303" width="200" height="200"><path d="M815.182769 1004.780308a83.495385 83.495385 0 0 1-24.182154-3.465846L507.273846 915.298462c135.483077-152.576 332.563692-374.311385 334.454154-376.674462 26.545231-26.151385 40.644923-62.385231 38.675692-99.643077V78.690462l115.081846 261.986461c9.767385 16.462769 11.421538 36.548923 4.489847 54.350769l-1.024 3.938462c-3.780923 15.517538-92.947692 522.555077-93.892923 527.675077a96.098462 96.098462 0 0 1-89.796924 78.139077z m-457.649231-46.237539a87.433846 87.433846 0 0 1-65.851076-30.877538L46.631385 629.129846a115.790769 115.790769 0 0 1 0-149.346461C50.176 475.529846 400.856615 56.477538 406.764308 49.545846A72.467692 72.467692 0 0 1 466.313846 19.219692h323.741539c27.175385 0 43.323077 20.007385 43.323077 53.641846v366.119385a58.604308 58.604308 0 0 1-20.243693 49.624615l-2.441846 2.678154c-10.082462 11.185231-383.684923 432.049231-387.544615 436.381539-16.305231 19.298462-40.251077 30.72-65.61477 31.035077l0.157539-0.157539zM610.461538 166.518154c-54.350769 0-98.461538 44.110769-98.461538 98.461538v1.339077a98.382769 98.382769 0 0 0 196.686769 0v-1.417846a98.540308 98.540308 0 0 0-98.146461-98.225231v-0.157538z" p-id="2304"></path></svg>