<svg t="1608606742372" class="icon" viewBox="0 0 1024 1024" version="1.1" xmlns="http://www.w3.org/2000/svg" p-id="8732" width="200" height="200"><path d="M761.540369 482.980286l228.032151-215.952334a115.884352 115.884352 0 0 0 0-164.305994L932.602871 46.008238a116.85688 116.85688 0 0 0-162.668053-2.047427L547.174791 254.692206 330.966529 24.3567 329.226217 22.616387A76.317831 76.317831 0 0 0 221.4292 22.053345L59.017075 184.004799a75.754789 75.754789 0 0 0-1.279641 105.544847L270.772184 516.506898l-201.415604 190.717799a116.191466 116.191466 0 0 0-33.219498 57.737434l-34.089655 144.85544a76.778502 76.778502 0 0 0 22.112208 73.400248c19.962411 18.78514 48.370456 25.592834 74.731076 17.863798l140.146359-41.102091c17.761427-5.272124 33.987284-14.639101 47.397928-27.17959l198.651578-188.158516 239.344183 254.75107 1.740313 1.89387c29.687687 29.841244 77.853401 29.994801 107.797017 0.460671l162.258568-161.900268a75.754789 75.754789 0 0 0 1.433198-105.596033l-236.170672-251.32163 0.051186 0.102371z m-478.89311 350.109969l-106.056704-105.442476a37.007238 37.007238 0 0 0-11.46559-7.626665l525.932739-498.087735 110.816971 110.407486c1.637941 1.689127 3.685368 2.508098 5.630424 3.736553l-525.011397 497.012837h0.153557zM821.734714 98.166433a41.460391 41.460391 0 0 1 57.788619 0.7166l56.816092 56.764906a41.306834 41.306834 0 0 1-0.767785 59.017075l-75.754789 71.659935c-1.433199-2.354541-2.610469-5.016195-4.760267-7.165994l-109.434958-108.974287 76.061903-72.018235h0.051185zM246.305434 380.660135a37.519095 37.519095 0 0 0 25.951134-10.902547L328.611989 313.555724A37.365538 37.365538 0 0 0 311.82309 250.853281a37.672652 37.672652 0 0 0-36.341825 9.622906L219.074659 316.882793a37.058424 37.058424 0 0 0-10.493062 23.698964L112.60847 238.312792c-0.563042-0.563042-0.563042-1.17727-0.3583-1.330827l162.309753-161.900268c0.153557-0.102371 0.818971-0.102371 1.53557 0.511857l216.771304 230.693806L325.387292 464.809373 246.35662 380.660135h-0.051186zM77.546287 929.216939a1.89387 1.89387 0 0 1-2.354541-2.200983l34.089655-145.008998a41.460391 41.460391 0 0 1 6.193466-13.410645c1.842684 4.401967 4.60671 8.496821 7.984964 11.875075l103.753349 103.395049a41.306834 41.306834 0 0 1-9.418163 4.197225l-140.24873 41.153277z m703.188707 19.50174c-0.153557 0.153557-0.818971 0.153557-1.484384-0.409486l-147.619467-157.242372a36.700124 36.700124 0 0 0 16.532971-8.957492l56.457792-56.253049a37.365538 37.365538 0 0 0-16.840085-62.651257 37.672652 37.672652 0 0 0-36.341824 9.674091l-56.457792 56.304235a37.058424 37.058424 0 0 0-8.548007 13.82013l-46.886071-49.906026 167.479505-158.522014 235.658816 251.014516c0.563042 0.614228 0.563042 1.17727 0.409485 1.330827l-162.258567 161.797897h-0.102372z" fill="#5B8FF9" p-id="8733"></path></svg>