<svg t="1608606370286" class="icon" viewBox="0 0 1024 1024" version="1.1" xmlns="http://www.w3.org/2000/svg" p-id="8310" width="200" height="200"><path d="M919.625143 15.579429H104.374857C50.688 15.579429 7.826286 58.514286 7.826286 112.128v568.612571c0 53.613714 42.861714 96.548571 96.548571 96.548572h316.416v123.318857h-144.822857c-10.678857 0-16.091429 5.412571-16.091429 16.091429v32.182857c0 10.752 5.412571 16.091429 16.091429 16.091428h472.064c10.678857 0 16.091429-5.339429 16.091429-16.091428v-32.182857c0-10.678857-5.412571-16.091429-16.091429-16.091429H608.548571v-123.318857h316.489143c53.613714 0 96.548571-42.934857 96.548572-96.548572V112.128c-5.412571-53.613714-48.274286-96.548571-101.961143-96.548571z m-659.748572 536.429714c0 16.091429-16.091429 32.182857-32.182857 32.182857s-32.182857-16.091429-32.182857-32.182857v-128.731429c0-16.091429 16.091429-32.182857 32.182857-32.182857s32.182857 16.091429 32.182857 32.182857v128.731429z m187.757715 0c0 16.091429-16.091429 32.182857-32.182857 32.182857s-32.182857-16.091429-32.182858-32.182857V332.068571c0-16.091429 16.091429-32.182857 32.182858-32.182857s32.182857 16.091429 32.182857 32.182857v219.940572z m193.097143 0c0 16.091429-16.091429 32.182857-32.182858 32.182857s-32.182857-16.091429-32.182857-32.182857v-160.914286c0-16.091429 16.091429-32.182857 32.182857-32.182857s32.182857 16.091429 32.182858 32.182857v160.914286z m187.757714 0c0 16.091429-16.091429 32.182857-32.182857 32.182857s-32.182857-16.091429-32.182857-32.182857V235.52c0-16.091429 16.091429-32.182857 32.182857-32.182857s32.182857 16.091429 32.182857 32.182857v316.489143z" p-id="8311"></path></svg>