<svg t="1606100407196" class="icon" viewBox="0 0 1024 1024" version="1.1" xmlns="http://www.w3.org/2000/svg" p-id="4819" width="200" height="200"><path d="M332.612277 1.798183l396.141416 240.928725c18.349569 13.364167 37.371832 28.148464 37.371832 51.042448v693.688467c0 20.636726-34.546521 33.335674-56.887402 23.663844L332.612277 770.544237c-20.636726-5.575877-37.371832-26.832975-37.371832-47.462226L282.272419 33.698779c0-20.6442 31.437185-39.711308 50.339858-31.915545z" fill="#94B6FD" p-id="4820"></path><path d="M302.714811 24.221282l396.141417 240.928725c18.349569 13.364167 37.371832 28.148464 37.371832 51.042448v672.147343c0 20.6442-20.591879 32.192096-37.371832 23.716165L302.714811 792.959862c-20.636726-5.575877-37.371832-26.832975-37.371832-47.462227V51.495245c0-20.6442 16.735106-32.857314 37.371832-27.281437z" fill="#FFFFFF" p-id="4821"></path><path d="M302.714811 24.221282l396.141417 240.928725c18.349569 13.364167 37.371832 28.148464 37.371832 51.042448v672.147343c0 20.6442-20.591879 32.192096-37.371832 23.716165L302.714811 792.959862c-20.636726-5.575877-37.371832-26.832975-37.371832-47.462227V51.495245c0-20.6442 16.735106-32.857314 37.371832-27.281437z" fill="#E6EEFF" p-id="4822"></path><path d="M349.698678 177.789613l115.314524 67.515952c5.3068 3.109336 9.612035 9.903535 9.612035 15.172963 0 5.276903-4.305235 7.033379-9.612035 3.931517L349.698678 196.886619c-10.688344-7.197815-10.688344-10.987319-9.612035-15.172963 1.076309-4.185645 4.305235-7.033379 9.612035-3.924043zM356.059364 293.679664l268.553983 158.008104c12.362602 7.272558 25.734243 15.995144 22.378253 22.7146-3.35599 6.711981-10.015651 3.654965-22.378253-3.617594l-268.553983-158.00063c-24.88964-15.576579-24.807422-17.205991-22.385727-22.714599 2.421695-5.508608 10.023125-3.654965 22.385727 3.617593zM363.496358 395.928995l268.553984 158.008105c12.362602 7.265084 25.734243 15.995144 22.378252 22.714599-3.35599 6.711981-10.015651 3.647491-22.378252-3.617593l-268.553984-158.008105c-24.88964-15.576579-24.807422-17.205991-22.385727-22.707125 2.429169-5.508608 10.023125-3.66244 22.385727 3.617594zM363.496358 515.518857l268.553984 158.008105c12.362602 7.265084 25.734243 15.995144 22.378252 22.714599-3.35599 6.711981-10.015651 3.647491-22.378252-3.617593l-268.553984-158.008105c-24.88964-15.576579-24.807422-17.205991-22.385727-22.707125 2.429169-5.508608 10.023125-3.66244 22.385727 3.617593z" fill="#D3E0FD" p-id="4823"></path></svg>