<svg class="icon" viewBox="0 0 1024 1024" xmlns="http://www.w3.org/2000/svg" width="200" height="200"><path d="M332.612 1.798l396.142 240.929c18.35 13.364 37.372 28.148 37.372 51.042v693.689c0 20.637-34.547 33.335-56.888 23.664L332.612 770.544c-20.636-5.576-37.372-26.833-37.372-47.462L282.272 33.699c0-20.644 31.438-39.712 50.34-31.916z"/><path d="M302.715 24.221L698.856 265.15c18.35 13.364 37.372 28.148 37.372 51.042V988.34c0 20.644-20.592 32.192-37.372 23.716L302.715 792.96c-20.637-5.576-37.372-26.833-37.372-47.462V51.495c0-20.644 16.735-32.857 37.372-27.281z"/><path d="M302.715 24.221L698.856 265.15c18.35 13.364 37.372 28.148 37.372 51.042V988.34c0 20.644-20.592 32.192-37.372 23.716L302.715 792.96c-20.637-5.576-37.372-26.833-37.372-47.462V51.495c0-20.644 16.735-32.857 37.372-27.281z"/><path d="M349.699 177.79l115.314 67.516c5.307 3.109 9.612 9.903 9.612 15.173 0 5.276-4.305 7.033-9.612 3.931L349.7 196.887c-10.689-7.198-10.689-10.988-9.612-15.173 1.076-4.186 4.305-7.034 9.612-3.924zm6.36 115.89l268.554 158.008c12.363 7.272 25.735 15.995 22.379 22.714-3.356 6.712-10.016 3.655-22.379-3.617l-268.554-158c-24.89-15.577-24.807-17.207-22.385-22.715 2.421-5.51 10.023-3.655 22.385 3.617zm7.437 102.249L632.05 553.937c12.363 7.265 25.735 15.995 22.379 22.715-3.356 6.712-10.016 3.647-22.379-3.618L363.496 415.026c-24.89-15.577-24.807-17.206-22.385-22.707 2.429-5.509 10.023-3.663 22.385 3.617zm0 119.59L632.05 673.527c12.363 7.265 25.735 15.995 22.379 22.715-3.356 6.712-10.016 3.647-22.379-3.618L363.496 534.616c-24.89-15.577-24.807-17.206-22.385-22.707 2.429-5.509 10.023-3.663 22.385 3.617z"/></svg>