<svg t="1605857673712" class="icon" viewBox="0 0 1024 1024" version="1.1" xmlns="http://www.w3.org/2000/svg" p-id="10653" width="200" height="200"><path d="M602.584615 139.657846h375.414154v745.156923H602.663385z" p-id="10654"></path><path d="M1011.396923 150.291692a39.620923 39.620923 0 0 0-43.795692-44.504615c-121.619692-2.363077-243.160615 0-364.937846-1.102769V11.657846h-68.056616C360.290462 43.323077 185.895385 73.806769 11.342769 104.999385v814.710153c173.528615 31.113846 347.136 60.809846 520.664616 92.632616h70.656v-91.372308h341.464615c19.456-1.260308 40.881231 0 57.422769-11.815384 13.390769-21.031385 9.846154-47.104 11.027693-70.656-1.102769-229.060923 0.945231-458.830769-1.10277-688.20677zM435.2 704.196923H182.587077V349.262769h251.667692v62.857846h-177.230769v76.012308h169.747692v63.015385H256.945231v90.112h187.392l-9.137231 63.015384h-0.078769z m542.798769 180.617846H602.663385V791.630769h295.699692v-47.261538H602.663385v-57.659077h295.699692V639.606154H602.663385v-57.659077h295.699692V534.843077H602.663385v-58.919385h295.699692v-45.371077H602.663385V371.790769h295.699692v-45.922461H602.663385v-58.289231h295.699692v-46.473846H602.663385V139.657846h375.335384v745.078154z" p-id="10655"></path></svg>