<svg t="1607327040292" class="icon" viewBox="0 0 1024 1024" version="1.1" xmlns="http://www.w3.org/2000/svg" p-id="6171" width="200" height="200"><path d="M1011.492571 150.308571a39.570286 39.570286 0 0 0-43.885714-44.544c-121.636571-2.340571-243.2 0-364.982857-1.024V11.629714h-68.022857C360.301714 43.373714 185.782857 73.874286 11.410286 104.96v814.811429c173.494857 31.085714 347.062857 60.708571 520.630857 92.598857h70.582857v-91.428572h341.577143c19.309714-1.170286 40.813714 0 57.344-11.849143 13.385143-20.992 9.801143-47.030857 11.044571-70.582857-1.097143-229.083429 0.950857-458.825143-1.097143-688.274285z m-576.365714 553.910858H182.564571V349.330286h251.611429v62.829714H257.097143v75.995429h169.764571v62.976H256.950857v90.112h187.392l-9.142857 62.902857H435.2z m542.793143 180.589714H602.697143v-93.110857h295.643428v-47.250286H602.697143v-57.709714h295.716571v-47.104H602.697143v-57.636572h295.716571v-47.104H602.697143v-58.953143h295.716571v-45.348571H602.697143v-58.733714h295.716571v-46.006857H602.697143v-58.294858h295.716571v-46.445714H602.697143V139.629714h375.369143v745.179429z" fill="#5B8FF9" opacity=".85" p-id="6172"></path></svg>