<svg t="1610092059454" class="icon" viewBox="0 0 1024 1024" version="1.1" xmlns="http://www.w3.org/2000/svg" p-id="1978" width="200" height="200"><path d="M121.64545479 146.68181826c-6.38181826 15.30000001-3.76363652 28.30909131 7.77272695 39.10909043l275.4 275.72727305v415.06363652a33.54545479 33.54545479 0 0 0 21.76363652 32.97272695 39.02727305 39.02727305 0 0 0 13.90909043 2.86363653 33.21818174 33.21818174 0 0 0 25.2-10.63636348l142.93636436-143.18181826a34.36363653 34.36363653 0 0 0 10.63636347-25.2V461.51818174l275.31818174-275.72727305c11.45454521-10.8 14.15454521-23.80909131 7.77272695-39.10909043a33.54545479 33.54545479 0 0 0-32.97272695-21.84545478H154.53636347a33.54545479 33.54545479 0 0 0-32.89090868 21.84545478z" fill="#878999" p-id="1979"></path></svg>