<svg t="1602585452768" class="icon" viewBox="0 0 1024 1024" version="1.1" xmlns="http://www.w3.org/2000/svg" p-id="2581" width="200" height="200"><path d="M512 926.134857A414.573714 414.573714 0 0 0 926.134857 512 414.573714 414.573714 0 0 0 512 97.865143 414.573714 414.573714 0 0 0 97.865143 512 414.573714 414.573714 0 0 0 512 926.134857M512 15.067429A497.517714 497.517714 0 0 1 1008.932571 512 497.517714 497.517714 0 0 1 512 1008.932571 497.517714 497.517714 0 0 1 15.067429 512 497.517714 497.517714 0 0 1 512 15.067429" fill="#5B8FF9" p-id="2582"></path><path d="M567.149714 315.538286a41.398857 41.398857 0 0 1 55.369143 61.659428L449.024 532.845714l174.08 162.889143a41.398857 41.398857 0 0 1-56.539429 60.489143L359.497143 562.468571a41.398857 41.398857 0 0 1 0.585143-61.001142l207.067428-185.929143z" fill="#5B8FF9" p-id="2583"></path></svg>