<svg class="icon" viewBox="0 0 1024 1024" xmlns="http://www.w3.org/2000/svg" width="200" height="200"><path d="M512 926.135A414.574 414.574 0 00926.135 512 414.574 414.574 0 00512 97.865 414.574 414.574 0 0097.865 512 414.574 414.574 0 00512 926.135m0-911.068A497.518 497.518 0 011008.933 512 497.518 497.518 0 01512 1008.933 497.518 497.518 0 0115.067 512 497.518 497.518 0 01512 15.067"/><path d="M567.15 315.538a41.399 41.399 0 0155.369 61.66L449.024 532.846l174.08 162.889a41.399 41.399 0 01-56.54 60.489L359.498 562.469a41.399 41.399 0 01.585-61.002L567.15 315.538z"/></svg>