<svg class="icon" viewBox="0 0 1024 1024" xmlns="http://www.w3.org/2000/svg" width="200" height="200"><path d="M512 0q512 0 512 512t-512 512Q0 1024 0 512T512 0z"/><path d="M513.463 762.149c54.126 0 98.011-15.36 131.657-46.08 32.914-29.989 49.737-68.755 49.737-116.298 0-30.72-8.777-56.32-26.331-76.8-16.092-20.48-39.497-35.108-70.217-44.617 57.051-19.017 85.577-58.514 85.577-117.028 0-43.886-15.36-78.263-45.349-103.863-30.72-25.6-71.68-38.034-121.417-38.034-49.737 0-89.966 13.897-120.686 42.422-32.183 28.526-51.2 68.023-55.588 118.492h59.245c3.658-35.109 15.36-62.172 35.84-81.189 19.749-19.017 46.812-27.794 81.92-27.794 33.646 0 60.709 8.046 79.726 25.6 17.554 16.091 27.063 38.766 27.063 68.023s-9.509 51.931-27.794 68.023c-18.286 15.36-44.617 23.405-79.726 23.405h-40.229v46.812h42.423c36.572 0 64.366 8.046 84.846 25.6 20.48 17.554 30.72 41.691 30.72 73.143 0 30.72-10.971 56.32-31.451 76.8-22.675 21.211-52.663 32.183-89.966 32.183-32.914 0-59.977-9.509-81.92-27.063-25.6-21.212-39.497-52.663-40.96-93.623h-60.709c4.389 58.514 24.869 103.131 62.172 133.851 31.451 24.869 71.68 38.035 121.417 38.035z"/></svg>