<svg class="icon" viewBox="0 0 1024 1024" xmlns="http://www.w3.org/2000/svg" width="200" height="200"><path d="M512 0q512 0 512 512t-512 512Q0 1024 0 512T512 0z"/><path d="M686.08 731.429v-53.395H411.794c9.509-35.108 47.543-75.337 114.103-119.954 54.126-36.571 89.966-65.097 108.252-84.114 33.645-36.572 51.2-77.532 51.2-122.88 0-45.349-16.092-82.652-46.812-110.446-31.451-27.794-70.948-41.691-119.223-41.691-52.663 0-95.817 17.554-128 52.662-32.183 34.378-49.005 81.189-49.005 139.703h59.977c.731-46.08 11.703-81.188 32.183-104.594 19.017-24.869 46.811-36.571 82.651-36.571 33.646 0 60.709 8.777 79.726 26.331 19.017 17.554 28.525 41.691 28.525 73.874 0 33.646-13.897 65.097-40.228 93.623-13.897 14.629-40.96 35.84-81.92 65.097-55.589 38.035-92.892 69.486-113.372 92.892-35.108 38.765-51.931 81.92-51.931 129.463h348.16z"/></svg>