<svg t="1605001856604" class="icon" viewBox="0 0 1024 1024" version="1.1" xmlns="http://www.w3.org/2000/svg" p-id="6403" width="200" height="200"><path d="M512 487.150933c-133.12 0-238.933333-107.861333-238.933333-243.575466S378.88 0 512 0s238.933333 107.861333 238.933333 243.575467S645.12 487.150933 512 487.150933z m0-417.5872c-95.573333 0-170.666667 76.5952-170.666667 174.011734 0 97.416533 75.093333 173.943467 170.666667 173.943466s170.666667-76.526933 170.666667-173.943466S607.573333 69.563733 512 69.563733z m392.533333 939.485867H119.466667c-47.786667 0-85.333333-38.229333-85.333334-86.971733C34.133333 751.547733 194.56 504.490667 443.733333 504.490667h136.533334c249.173333 0 409.6 246.9888 409.6 417.518933 0 48.674133-37.546667 86.971733-85.333334 86.971733zM443.733333 574.122667c-204.8 0-341.333333 208.759467-341.333333 347.9552 0 10.4448 6.826667 17.408 17.066667 17.408h785.066666c10.24 0 17.066667-6.9632 17.066667-17.408 0-139.195733-136.533333-347.9552-341.333333-347.9552H443.733333z" fill="#363746" p-id="6404"></path></svg>