<svg t="1605068017272" class="icon" viewBox="0 0 1462 1024" version="1.1" xmlns="http://www.w3.org/2000/svg" p-id="4141" width="200" height="200"><path d="M731.428571 73.142857c240.347429 0 470.747429 128.731429 691.346286 386.340572l11.995429 14.189714a113.956571 113.956571 0 0 1 0 149.796571C1210.514286 890.441143 976.018286 1024 731.428571 1024 491.081143 1024 260.681143 895.268571 40.082286 637.805714l-11.995429-14.336a113.956571 113.956571 0 0 1 0-149.796571C252.342857 206.701714 486.838857 73.142857 731.428571 73.142857z m0 95.085714c-204.653714 0-409.746286 116.736-615.424 361.618286a28.379429 28.379429 0 0 0-2.633142 33.645714l2.340571 3.510858 11.702857 13.750857C329.289143 816.420571 530.578286 928.914286 731.428571 928.914286c204.8 0 409.746286-116.736 615.424-361.618286a28.379429 28.379429 0 0 0 2.633143-33.645714l-2.340571-3.364572-11.702857-13.897143C1133.568 280.868571 932.278857 168.228571 731.428571 168.228571z m0 142.628572c150.674286 0 272.676571 106.496 272.676572 237.714286S881.956571 786.285714 731.428571 786.285714c-150.674286 0-272.676571-106.496-272.676571-237.714285S580.900571 310.857143 731.428571 310.857143z m0 95.085714c-90.404571 0-163.547429 63.926857-163.547428 142.628572s73.142857 142.628571 163.547428 142.628571c90.404571 0 163.547429-63.926857 163.547429-142.628571s-73.142857-142.628571-163.547429-142.628572z" fill="#363746" p-id="4142"></path></svg>