
<svg t="1605001958173" class="icon" viewBox="0 0 1024 1024" version="1.1" xmlns="http://www.w3.org/2000/svg" p-id="6528" width="200" height="200"><path d="M780.8 431.616c42.432 0 76.8 34.112 76.8 76.16v355.328c0 20.224-8.064 39.68-22.4 53.952-14.464 14.272-33.92 22.336-54.4 22.336H217.6c-20.352 0-39.872-8.064-54.272-22.4a75.776 75.776 0 0 1-22.4-53.76V507.776c0-42.176 34.24-76.224 76.672-76.224h563.2m0-76.16H217.6A152.96 152.96 0 0 0 64 507.84v355.328a152.96 152.96 0 0 0 153.6 152.32h563.2a152.96 152.96 0 0 0 153.6-152.256V507.84a151.68 151.68 0 0 0-44.992-107.712 154.24 154.24 0 0 0-108.608-44.608zM499.2 76.288c47.552 0 93.12 18.752 126.72 52.032 33.6 33.28 52.48 78.528 52.48 125.632v101.632H320V253.888c0-98.112 80.256-177.664 179.2-177.664m0-76.096c-141.312 0-255.936 113.6-256 253.76v177.728h512.064V254.016a252.8 252.8 0 0 0-74.88-179.648A257.088 257.088 0 0 0 499.2 0v0.128z m0 799.616a38.208 38.208 0 0 1-38.4-38.08v-152.32c0-20.992 17.28-38.08 38.4-38.08 21.248 0 38.4 17.088 38.4 38.08v152.32a38.144 38.144 0 0 1-38.4 38.016z" fill="#3E3E3E" p-id="6529"></path></svg>