<svg t="1605008160619" class="icon" viewBox="0 0 2048 1024" version="1.1" xmlns="http://www.w3.org/2000/svg" p-id="6778" width="200" height="200"><path d="M2019.7376 147.8656a77.824 77.824 0 0 0-14.336-100.7616C1973.6576 22.528 1931.264 29.4912 1905.664 61.44c-3.072 3.072-397.312 473.7024-866.304 473.7024C585.5232 535.1424 173.4656 61.44 169.5744 57.1392A72.2944 72.2944 0 0 0 69.4272 49.7664a73.5232 73.5232 0 0 0-7.168 100.9664c7.168 10.24 92.7744 108.1344 227.328 215.04l-180.224 190.6688a70.4512 70.4512 0 0 0 3.072 100.7616c7.3728 14.336 24.576 21.7088 42.1888 21.7088s35.0208-7.3728 49.5616-21.7088l195.584-204.8c92.7744 64.9216 201.9328 125.7472 323.584 168.96L648.8064 876.544a71.68 71.68 0 0 0 49.5616 89.4976h21.7088a67.1744 67.1744 0 0 0 66.7648-53.4528l74.1376-255.5904c56.5248 10.24 117.5552 17.6128 177.3568 17.6128 59.8016 0 120.4224-7.168 176.9472-17.6128l74.1376 251.2896a71.8848 71.8848 0 0 0 66.9696 53.4528c7.168 0 14.336 0 17.6128-2.8672a70.8608 70.8608 0 0 0 49.5616-89.4976l-74.3424-251.2896a1387.3152 1387.3152 0 0 0 323.584-168.96l191.488 200.9088c14.336 14.336 31.9488 21.7088 49.5616 21.7088 17.408 0 34.816-7.3728 49.3568-21.7088a72.0896 72.0896 0 0 0 3.072-100.7616l-181.248-190.464A1325.2608 1325.2608 0 0 0 2019.7376 147.8656z" fill="#363746" p-id="6779"></path></svg>