<svg t="1602816287093" class="icon" viewBox="0 0 4218 1024" version="1.1" xmlns="http://www.w3.org/2000/svg" p-id="4696" width="200" height="200"><path d="M1372.009279 850.834973c123.484521-55.49636 235.132549-148.672906 317.947044-280.266858 59.182465 123.484521 147.198464 222.558835 260.320935 277.277017 11.058315-19.24966 33.297816-47.305016 50.294856-61.353171-122.7473-51.032077-218.913687-162.680106-269.904807-289.891689 28.833533-56.929846 51.728342-121.272858 69.503559-191.513639l-49.557635-22.935765-13.310935 3.686105h-170.789537c14.007199-31.782417 25.843693-64.302056 36.942965-97.599872l-74.705064-17.775218c-42.881689 141.300696-119.798416 269.208543-218.135509 346.862491 17.734261 11.058315 49.557635 36.942965 61.394128 50.991121 61.353172-53.980962 116.071354-127.907847 161.205664-212.974962h175.253819c-65.080234 216.661067-212.237741 360.86969-389.703223 434.100312 16.99704 13.310935 43.61891 43.61891 53.24374 61.394128z m1074.458684-2.25262v-204.087353h65.12119v204.087353h59.87873v-147.853771c36.942965 53.243741 82.077274 101.285977 124.958963 131.593952 9.62483-15.522598 29.570754-37.680186 44.356131-49.557635-50.991121-29.570754-105.75026-83.551716-144.167666-138.269899h90.923926v-106.487481h41.407247v-53.24374h-41.36629V384.215023h-116.112311V338.302536h146.420286V284.362531h-138.310855c20.724102-26.62187 42.185425-58.404288 63.605791-88.75322l-65.817454-25.884649a792.922166 792.922166 0 0 1-62.868571 114.637869h-110.173586l33.994081-16.99704c-13.269978-25.147428-42.144468-65.817455-65.039277-94.650988l-52.50652 22.935765c19.24966 27.318135 43.61891 62.827614 57.667067 88.712263h-110.910807v53.980962h120.535637v45.87153h-93.913767v53.24374h93.913767v47.305016h-130.160467v53.24374h130.160467v52.50652h-101.326934v53.980961h77.653948c-34.772258 57.667067-85.763379 111.648028-139.00712 140.481562 14.048156 11.87745 33.99408 34.035037 42.88169 49.557635 44.356132-28.833533 86.5006-76.87577 119.798416-130.11951v144.167666h58.404288z m-254.341253-508.027197l48.042236-45.093353c-22.935765-29.570754-72.493401-74.705064-110.173586-106.487481l-45.134309 39.932805c37.680186 33.99408 85.026158 81.340053 107.224702 111.648029z m319.462443 43.659867h-65.12119V338.302536h65.12119v45.87153z m-366.071194 451.056395c10.321094-16.99704 28.833533-34.731301 143.430445-136.795456a289.973602 289.973602 0 0 1-26.62187-54.718183l-51.728342 45.093353V396.74778h-150.147348v65.817455h85.804336v250.696104c0 36.983921-21.461323 62.868571-36.246701 73.967843 11.058315 11.058315 28.833533 33.99408 35.50948 48.042236z m366.030237-350.507639h-65.080233v-47.305016h65.12119v47.305016z m118.323974 0h-58.404287v-47.305016h58.404287v47.305016z m-118.323974 105.75026h-65.080233v-52.50652h65.12119v52.50652z m118.323974 0h-58.404287v-52.50652h58.404287v52.50652z m538.335173 258.068314v-235.132549h192.291817v39.932805H3432.173426v-353.456523h-264.007039V171.199104h-71.715223v128.645068h-260.320934v357.183586h68.807295v-43.618911h191.513639v235.13255h71.715223z m192.291817-302.424446h-192.291817v-178.980881h192.291817v178.980881z m-264.007039 0h-191.513639v-178.980881h191.513639v178.980881z m1034.566834-42.185425l57.667067-42.881689c-38.458363-60.615951-124.958963-151.580834-194.50348-214.449404l-53.24374 36.2467a1589.079914 1589.079914 0 0 1 97.640828 100.548756l-343.87265 14.089113a1455.274298 1455.274298 0 0 0 176.728262-204.12831L3802.708903 163.826894c-53.980962 89.490441-137.532677 180.455324-163.417326 204.824574-24.410207 23.672986-42.881689 39.195584-60.615951 42.185425 7.37221 19.208703 19.208703 53.243741 22.116631 67.291897 33.297816-11.87745 80.643788-13.310935 487.385009-34.772259 16.99704 21.461323 31.782417 42.185425 42.881689 60.615951z m-427.424366 345.347092v-39.154627h336.459483v37.680185h73.189665v-313.523718h-479.193664v314.99816h69.544516z m336.459483-105.709303h-336.459483v-143.471402h336.459483v143.471402z" fill="#5B8FF9" p-id="4697"></path><path d="M30.840413 149.328214L613.12215 25.475082l0.204784 998.524918L30.840413 900.228782zM675.49924 74.008799l291.243261 165.178466v579.660507l-291.202304 170.461883 227.309815-220.060475V267.734101z" fill="#5B8FF9" p-id="4698"></path><path d="M479.029838 361.074474v355.299576l-73.722103-8.928566 0.040957-195.691224-95.183425 184.223342-53.980962-6.512119-87.934085-174.639469-0.040957 164.072634-45.789617-5.488201v-251.433325l63.319095-10.853532 95.429166 193.561475 112.344292-229.029997 85.517639-14.580594z" fill="#FFFFFF" p-id="4699"></path></svg>