<svg t="1601348046440" class="icon" viewBox="0 0 1024 1024" version="1.1" xmlns="http://www.w3.org/2000/svg" p-id="1275" width="200" height="200"><path d="M64 0h896a64 64 0 0 1 64 64v896a64 64 0 0 1-64 64H64a64 64 0 0 1-64-64V64a64 64 0 0 1 64-64z" fill="#5B8FF9" p-id="1276"></path><path d="M522.496 756.224v-158.72h46.08v158.72h32.256v-128c20.992 36.864 52.224 71.68 94.208 103.936l22.016-27.648c-49.152-31.744-83.968-67.072-104.448-107.008h68.096V522.24h34.816v-31.744h-34.816V417.28h-79.872v-39.424h98.816v-33.28h-84.48c10.24-17.408 17.92-35.84 23.04-55.808l-35.84-4.608c-5.12 20.48-12.8 40.96-23.04 60.416h-59.392c-8.192-22.528-16.384-42.496-25.6-59.904l-36.352 6.144c10.24 16.384 19.456 34.304 27.648 53.76h-78.336v33.28h82.944v39.424h-62.976V448h62.976v42.496h-87.552v31.744h87.552v44.544h-66.048v30.72h55.296c-20.48 44.032-51.712 80.384-94.72 109.056l18.432 30.208a301.12 301.12 0 0 0 87.04-104.96v124.416h32.256z m-157.184-359.936l25.088-25.6c-23.04-26.624-51.712-52.736-85.504-79.36l-26.112 25.088c36.864 28.16 65.536 54.784 86.528 79.872z m203.264 20.992h-46.08v-39.424h46.08v39.424zM318.72 736.256a598.496 598.496 0 0 0 82.432-75.264l-9.728-37.888c-14.336 15.36-27.648 29.696-40.96 42.496v-223.232h-104.96v35.328h69.12v205.312c0 7.68-3.584 14.336-10.24 20.48l14.336 32.768z m249.856-245.76h-46.08V448h46.08v42.496z m79.36 0h-47.104V448h47.104v42.496z m-79.36 76.288h-46.08V522.24h46.08v44.544z m79.36 0h-47.104V522.24h47.104v44.544z" fill="#FFFFFF" p-id="1277"></path></svg>