<svg t="1610953347358" class="icon" viewBox="0 0 4276 1024" version="1.1" xmlns="http://www.w3.org/2000/svg" p-id="9711" width="200" height="200"><path d="M90.292706 1010.386824c181.609412-81.618824 345.810824-218.654118 467.606588-412.190118 87.04 181.609412 216.485647 327.318588 382.85553 407.792941 16.263529-28.310588 48.971294-69.571765 73.968941-90.232471-180.525176-75.053176-321.957647-239.254588-396.950589-426.345411 42.405647-83.727059 76.077176-178.356706 102.219295-281.660236l-72.884706-33.731764-19.576471 5.421176h-251.181176c20.600471-46.742588 38.008471-94.569412 54.332235-143.540706L320.813176 9.758118C257.807059 217.569882 144.624941 405.684706 0 519.890824c26.081882 16.263529 72.884706 54.332235 90.292706 74.992941 90.232471-79.390118 170.706824-188.114824 237.086118-313.22353h257.746823C489.411765 600.304941 272.986353 812.393412 11.986824 920.094118c24.997647 19.576471 64.150588 64.150588 78.305882 90.292706z m1580.212706-3.312942v-300.15247h95.774117v300.15247h88.064v-217.449411c54.332235 78.305882 120.711529 148.961882 183.777883 193.536 14.155294-22.829176 43.489882-55.416471 65.234823-72.884706-74.992941-43.489882-155.527529-122.88-212.028235-203.354353h133.722353v-156.611765h60.897882v-78.305882h-60.837647V324.126118h-170.767059V256.602353h215.341177V177.272471h-203.414588c30.479059-39.152941 62.042353-85.895529 93.545411-130.529883L1863.017412 8.673882a1166.155294 1166.155294 0 0 1-92.461177 168.598589h-162.032941l49.995294-24.997647C1639.002353 115.290353 1596.596706 55.416471 1562.925176 13.071059l-77.221647 33.731765c28.310588 40.176941 64.150588 92.400941 84.811295 130.469647h-163.117177v79.390117h177.272471v67.46353h-138.11953v78.305882h138.11953v69.571765h-191.427765v78.305882h191.427765v77.221647h-149.022118v79.390118h114.206118c-51.139765 84.811294-126.132706 164.201412-204.438589 206.607059 20.660706 17.468235 49.995294 50.055529 63.066353 72.884705 65.234824-42.405647 127.216941-113.061647 176.188236-191.367529v212.028235h85.895529z m-374.061177-747.158588l70.656-66.319059c-33.731765-43.489882-106.616471-109.869176-162.032941-156.611764l-66.379294 58.729411c55.416471 49.995294 125.048471 119.627294 157.696 164.201412z m469.835294 64.210824h-95.774117V256.602353h95.774117v67.463529z m-538.383058 663.371294c15.179294-24.997647 42.405647-51.079529 210.944-201.185883a426.465882 426.465882 0 0 1-39.152942-80.474353l-76.077176 66.319059V342.558118h-220.822588v96.798117h126.192941v368.700236c0 54.392471-31.563294 92.461176-53.308235 108.784941 16.263529 16.263529 42.405647 49.995294 52.224 70.656z m538.322823-515.493647h-95.713882V402.432h95.774117v69.571765z m174.019765 0h-85.89553V402.432h85.89553v69.571765z m-174.019765 155.527529h-95.713882V550.309647h95.774117v77.221647z m174.019765 0h-85.89553V550.309647h85.89553v77.221647z m791.732706 379.542588v-345.810823h282.804706v58.729412H3120.188235v-519.830589h-388.276706V10.842353h-105.472v189.199059h-382.855529v525.312h101.195294v-64.150588h281.660235v345.810823h105.472z m282.804706-444.777411h-282.804706v-263.228236h282.804706v263.228236z m-388.276706 0h-281.660236v-263.228236h281.660236v263.228236z m1521.543529-62.042353l84.811294-63.066353c-56.560941-89.148235-183.777882-222.930824-286.057412-315.392l-78.305882 53.308235a2337.069176 2337.069176 0 0 1 143.600941 147.877647l-505.735529 20.720941A2140.280471 2140.280471 0 0 0 3766.272 43.489882L3665.136941 0c-79.390118 131.614118-202.270118 265.396706-240.338823 301.236706-35.900235 34.816-63.066353 57.645176-89.148236 62.042353 10.842353 28.250353 28.250353 78.305882 32.527059 98.966588 48.971294-17.468235 118.603294-19.576471 716.8-51.139765 24.997647 31.563294 46.742588 62.042353 63.066353 89.148236z m-628.615529 507.904v-57.584942h494.832941v55.416471h107.64047V544.888471h-704.752941v463.269647h102.27953z m494.832941-155.467294h-494.832941v-211.004236h494.832941v211.004236z" p-id="9712"></path></svg>