<svg t="1602854146578" class="icon" viewBox="0 0 1024 1024" version="1.1" xmlns="http://www.w3.org/2000/svg" p-id="5577" width="200" height="200"><path d="M528.504471 507.723294a35.538824 35.538824 0 0 1-36.261647-34.816V58.428235c0-19.275294 16.263529-34.996706 36.261647-34.996706 20.058353 0 36.382118 15.721412 36.382117 34.936471v414.418824a35.659294 35.659294 0 0 1-36.321882 34.93647h-0.060235z m-10.902589 485.556706a471.461647 471.461647 0 0 1-327.981176-131.072 445.921882 445.921882 0 0 1-99.388235-142.155294 433.573647 433.573647 0 0 1 16.624941-381.83153 457.968941 457.968941 0 0 1 141.131294-156.009411 37.165176 37.165176 0 0 1 50.657882 8.071529 34.093176 34.093176 0 0 1-8.432941 48.730353A387.132235 387.132235 0 0 0 171.068235 370.748235a360.990118 360.990118 0 0 0-44.815059 174.98353c0 100.833882 40.779294 195.644235 114.688 266.962823a395.986824 395.986824 0 0 0 276.720942 110.592 396.227765 396.227765 0 0 0 276.660706-110.531764A368.338824 368.338824 0 0 0 908.950588 545.731765a360.688941 360.688941 0 0 0-44.694588-174.98353 386.710588 386.710588 0 0 0-119.265882-131.614117 34.093176 34.093176 0 0 1-8.854589-48.00753l0.602353-0.783059a37.104941 37.104941 0 0 1 50.597647-8.071529 457.366588 457.366588 0 0 1 141.071059 155.949176 433.091765 433.091765 0 0 1 16.745412 381.771295c-23.491765 53.488941-57.283765 101.797647-99.388235 142.275764a464.353882 464.353882 0 0 1-147.456 95.894589 477.244235 477.244235 0 0 1-180.705883 35.117176z" p-id="5578"></path></svg>