<svg t="1599458407985" class="icon" viewBox="0 0 3840 1024" version="1.1" xmlns="http://www.w3.org/2000/svg" p-id="2061" width="200" height="200"><path d="M64 0h3712a64 64 0 0 1 64 64v896a64 64 0 0 1-64 64H64a64 64 0 0 1-64-64V64a64 64 0 0 1 64-64z" fill="#5B8FF9" p-id="2062"></path><path d="M936.96 754.688c91.648-38.912 168.96-99.328 231.424-180.224 39.936 71.68 103.424 131.072 189.44 178.688l28.672-33.792c-90.624-44.032-155.648-102.912-194.56-177.664 29.696-44.032 55.808-93.696 78.336-149.504v-31.744h-178.688c12.288-23.552 22.528-48.64 30.72-74.752l-40.448-4.608c-27.648 84.992-80.384 156.672-158.208 215.04l24.576 32.256c49.664-37.888 90.112-81.408 121.856-130.56h156.16c-70.656 158.72-174.08 265.216-310.272 320.512l20.992 36.352z m769.536 1.536v-158.72h46.08v158.72h32.256v-128c20.992 36.864 52.224 71.68 94.208 103.936l22.016-27.648c-49.152-31.744-83.968-67.072-104.448-107.008h68.096V522.24h34.816v-31.744h-34.816V417.28h-79.872v-39.424h98.816v-33.28h-84.48c10.24-17.408 17.92-35.84 23.04-55.808l-35.84-4.608c-5.12 20.48-12.8 40.96-23.04 60.416h-59.392c-8.192-22.528-16.384-42.496-25.6-59.904l-36.352 6.144c10.24 16.384 19.456 34.304 27.648 53.76h-78.336v33.28h82.944v39.424h-62.976V448h62.976v42.496h-87.552v31.744h87.552v44.544h-66.048v30.72h55.296c-20.48 44.032-51.712 80.384-94.72 109.056l18.432 30.208a301.12 301.12 0 0 0 87.04-104.96v124.416h32.256z m-157.184-359.936l25.088-25.6c-23.04-26.624-51.712-52.736-85.504-79.36l-26.112 25.088c36.864 28.16 65.536 54.784 86.528 79.872z m203.264 20.992h-46.08v-39.424h46.08v39.424z m-249.856 318.976a598.496 598.496 0 0 0 82.432-75.264l-9.728-37.888c-14.336 15.36-27.648 29.696-40.96 42.496v-223.232h-104.96v35.328h69.12v205.312c0 7.68-3.584 14.336-10.24 20.48l14.336 32.768z m249.856-245.76h-46.08V448h46.08v42.496z m79.36 0h-47.104V448h47.104v42.496z m-79.36 76.288h-46.08V522.24h46.08v44.544z m79.36 0h-47.104V522.24h47.104v44.544z m363.008 192v-174.592h146.944v32.256h36.864v-240.64h-183.808v-92.16h-37.888v92.16H1973.76v240.64h36.864v-32.256h146.432v174.592h37.888z m-37.888-210.432h-146.432v-136.704h146.432v136.704z m184.832 0h-146.944v-136.704h146.944v136.704zM2880 528.384l35.84-17.408a1301.952 1301.952 0 0 0-122.88-169.984l-33.28 15.872c20.48 23.552 40.448 49.664 59.904 77.312a5472.96 5472.96 0 0 1-279.552 18.944c46.08-37.888 92.672-90.112 138.752-155.648l-37.888-12.8c-66.56 97.792-122.368 154.624-167.424 169.984l7.168 34.816c133.12-5.12 253.44-12.288 361.472-22.016 12.288 19.456 25.088 39.424 37.888 60.928z m-325.632 227.328v-25.6h267.264v25.6h37.376v-213.504H2516.992v213.504h37.376z m267.264-60.928h-267.264v-117.248h267.264v117.248z" fill="#FFFFFF" p-id="2063"></path></svg>
