<svg t="1600940900257" class="icon" viewBox="0 0 1024 1024" version="1.1" xmlns="http://www.w3.org/2000/svg" p-id="3434" width="200" height="200"><path d="M87.405714 558.665143h309.101715c36.352 0 66.413714 28.379429 68.534857 64.658286l0.146285 4.022857v309.101714a68.681143 68.681143 0 0 1-64.658285 68.534857l-4.022857 0.146286H87.405714a68.681143 68.681143 0 0 1-68.534857-64.658286l-0.146286-4.022857V627.346286c0-36.352 28.379429-66.413714 64.658286-68.534857l4.022857-0.146286h309.101715-309.101715z m825.051429 0c38.034286 0 68.754286 30.72 68.754286 68.754286v309.028571c0 37.888-30.72 68.681143-68.754286 68.681143H603.428571a68.681143 68.681143 0 0 1-68.681142-68.754286V627.419429c0-37.961143 30.72-68.681143 68.754285-68.681143h309.028572zM758.052571 9.362286l6.582858 0.073143a257.536 257.536 0 0 1 0 514.925714l-6.582858 0.146286-6.582857-0.146286a257.536 257.536 0 0 1 6.582857-514.998857z m-361.472 34.377143c36.352 0 66.413714 28.306286 68.534858 64.585142l0.146285 4.096v309.028572a68.681143 68.681143 0 0 1-64.658285 68.608L396.434286 490.057143H87.405714a68.681143 68.681143 0 0 1-68.534857-64.658286l-0.146286-4.022857V112.420571c0-36.425143 28.379429-66.486857 64.658286-68.608l4.022857-0.073142h309.101715z" p-id="3435"></path></svg>