<svg class="icon" viewBox="0 0 1024 1024" xmlns="http://www.w3.org/2000/svg" width="200" height="200"><path d="M87.406 558.665h309.101c36.352 0 66.414 28.38 68.535 64.658l.147 4.023v309.102a68.681 68.681 0 01-64.659 68.535l-4.023.146H87.406a68.681 68.681 0 01-68.535-64.658l-.146-4.023V627.346c0-36.352 28.379-66.413 64.658-68.535l4.023-.146h309.101H87.406zm825.051 0c38.034 0 68.754 30.72 68.754 68.754v309.029c0 37.888-30.72 68.681-68.754 68.681H603.43a68.681 68.681 0 01-68.682-68.754V627.419c0-37.96 30.72-68.68 68.755-68.68H912.53zM758.053 9.362l6.582.073a257.536 257.536 0 010 514.926l-6.582.146-6.583-.146a257.536 257.536 0 016.583-514.999zM396.58 43.74c36.352 0 66.413 28.307 68.534 64.586l.147 4.096v309.028a68.681 68.681 0 01-64.659 68.608H87.406A68.681 68.681 0 0118.87 425.4l-.146-4.023V112.421c0-36.426 28.379-66.487 64.658-68.608l4.023-.074h309.101z"/></svg>