<svg class="icon" viewBox="0 0 1024 1024" xmlns="http://www.w3.org/2000/svg" width="200" height="200"><path d="M205.184 90.112h153.408c63.552 0 115.072 51.52 115.072 115.072v153.408c0 63.552-51.52 115.072-115.072 115.072H205.184A115.072 115.072 0 0190.112 358.592V205.184c0-63.552 51.52-115.072 115.072-115.072zm0 61.376a53.696 53.696 0 00-53.696 53.696v153.408a53.696 53.696 0 0053.696 53.696h153.408a53.696 53.696 0 0053.696-53.696V205.184a53.696 53.696 0 00-53.696-53.696H205.184zm0 398.848h153.408c63.552 0 115.072 51.52 115.072 115.072v153.408c0 63.552-51.52 115.072-115.072 115.072H205.184A115.072 115.072 0 0190.112 818.816V665.408c0-63.552 51.52-115.072 115.072-115.072zm0 61.44a53.696 53.696 0 00-53.696 53.632v153.408a53.696 53.696 0 0053.696 53.696h153.408a53.696 53.696 0 0053.696-53.696V665.408a53.696 53.696 0 00-53.696-53.696H205.184zm460.224-521.6h153.408c63.552 0 115.072 51.456 115.072 115.008v153.408c0 63.552-51.52 115.072-115.072 115.072H665.408a115.072 115.072 0 01-115.072-115.072V205.184c0-63.552 51.52-115.072 115.072-115.072zm0 61.312a53.696 53.696 0 00-53.696 53.696v153.408c0 29.632 24.064 53.696 53.696 53.696h153.408a53.696 53.696 0 0053.696-53.696V205.184a53.696 53.696 0 00-53.696-53.696H665.408zm-57.536 487.04h268.48a30.72 30.72 0 100-61.312h-268.48a30.72 30.72 0 100 61.376zm0 134.272h191.744a30.72 30.72 0 100-61.376H607.872a30.72 30.72 0 100 61.376zm0 134.208h115.072a30.72 30.72 0 100-61.312H607.872a30.72 30.72 0 100 61.312z" fill-opacity=".45"/></svg>