<svg t="1608606707024" class="icon" viewBox="0 0 1024 1024" version="1.1" xmlns="http://www.w3.org/2000/svg" p-id="8592" width="200" height="200"><path d="M141.116952 577.340952a116.49219 116.49219 0 0 0-116.443428 116.492191v197.144381a117.028571 117.028571 0 0 0 116.979809 117.028571h196.169143a117.51619 117.51619 0 0 0 116.97981-117.028571l-2.584381-313.636572h-311.100953z m228.352 313.636572a31.695238 31.695238 0 0 1-31.695238 31.695238H141.702095a31.695238 31.695238 0 0 1-31.695238-31.695238V693.881905c0-17.212952 13.945905-31.207619 31.207619-31.207619l228.303238-2.535619v230.887619z m513.414096-313.636572l-313.685334 2.535619v311.100953a117.51619 117.51619 0 0 0 117.028572 117.028571h196.120381a117.028571 117.028571 0 0 0 117.028571-117.028571V693.881905c0-64.365714-52.175238-116.49219-116.540952-116.492191z m31.158857 313.636572a31.695238 31.695238 0 0 1-31.695238 31.695238h-196.169143a31.695238 31.695238 0 0 1-31.695238-31.695238V662.674286h228.400762c17.212952 0 31.158857 13.945905 31.158857 31.158857v197.144381zM337.822476 32.280381H141.653333a117.028571 117.028571 0 0 0-117.028571 116.979809v197.193143c0 64.316952 52.175238 116.443429 116.540952 116.443429h313.636572V149.26019a117.51619 117.51619 0 0 0-117.028572-117.028571zM141.116952 377.61219a31.158857 31.158857 0 0 1-31.158857-31.207619V149.308952c0-17.505524 14.189714-31.695238 31.695238-31.695238h196.169143c17.456762 0 31.695238 14.189714 31.695238 31.695238v228.352H141.06819zM882.346667 32.280381h-196.169143a117.51619 117.51619 0 0 0-116.97981 116.979809l2.584381 313.636572h311.100953c64.316952 0 116.443429-52.126476 116.443428-116.443429V149.211429a117.028571 117.028571 0 0 0-116.979809-117.028572z m31.695238 314.172952a31.158857 31.158857 0 0 1-31.207619 31.158857h-228.303238V149.211429c0-17.505524 14.140952-31.695238 31.695238-31.695239h196.120381c17.505524 0 31.695238 14.189714 31.695238 31.695239v197.193142z" fill="#5B8FF9" p-id="8593"></path></svg>