<svg class="icon" viewBox="0 0 1024 1024" xmlns="http://www.w3.org/2000/svg" width="200" height="200"><path d="M422.4 473.6H115.2A51.264 51.264 0 0164 422.4V115.2C64 86.976 86.976 64 115.2 64h307.2c28.224 0 51.2 22.976 51.2 51.2v307.2c0 28.224-22.976 51.2-51.2 51.2zM115.2 115.2v307.2h307.2V115.2H115.2zm793.6 358.4H601.6a51.264 51.264 0 01-51.2-51.2V115.2c0-28.224 22.976-51.2 51.2-51.2h307.2c28.224 0 51.2 22.976 51.2 51.2v307.2c0 28.224-22.976 51.2-51.2 51.2zM601.6 115.2v307.2h307.264l-.064-307.2H601.6zM422.4 960H115.2A51.264 51.264 0 0164 908.8V601.6c0-28.224 22.976-51.2 51.2-51.2h307.2c28.224 0 51.2 22.976 51.2 51.2v307.2c0 28.224-22.976 51.2-51.2 51.2zM115.2 601.6v307.2h307.2V601.6H115.2z"/><path d="M332.8 307.2a25.6 25.6 0 01-25.6 25.6h-76.8a25.6 25.6 0 01-25.6-25.6v-76.8a25.6 25.6 0 0125.6-25.6h76.8a25.6 25.6 0 0125.6 25.6v76.8zm486.4 0a25.6 25.6 0 01-25.6 25.6h-76.8a25.6 25.6 0 01-25.6-25.6v-76.8a25.6 25.6 0 0125.6-25.6h76.8a25.6 25.6 0 0125.6 25.6v76.8zM332.8 793.6a25.6 25.6 0 01-25.6 25.6h-76.8a25.6 25.6 0 01-25.6-25.6v-76.8a25.6 25.6 0 0125.6-25.6h76.8a25.6 25.6 0 0125.6 25.6v76.8zm279.616 84.8a25.6 25.6 0 01-25.6-25.6v-264a25.6 25.6 0 1151.2 0v264a25.6 25.6 0 01-25.6 25.6zM755.2 804.8a25.6 25.6 0 01-25.6-25.6V588.8a25.6 25.6 0 1151.2 0v190.4a25.6 25.6 0 01-25.6 25.6zM896 960a25.6 25.6 0 01-25.6-25.6V588.8a25.6 25.6 0 1151.2 0v345.6A25.6 25.6 0 01896 960z"/></svg>