<svg t="1600143849269" class="icon" viewBox="0 0 1024 1024" version="1.1" xmlns="http://www.w3.org/2000/svg" p-id="1336" width="200" height="200"><path d="M422.4 473.6H115.2a51.264 51.264 0 0 1-51.2-51.2V115.2c0-28.224 22.976-51.2 51.2-51.2h307.2c28.224 0 51.2 22.976 51.2 51.2v307.2c0 28.224-22.976 51.2-51.2 51.2zM115.2 115.2v307.2h307.2V115.2H115.2zM908.8 473.6H601.6a51.264 51.264 0 0 1-51.2-51.2V115.2c0-28.224 22.976-51.2 51.2-51.2h307.2c28.224 0 51.2 22.976 51.2 51.2v307.2c0 28.224-22.976 51.2-51.2 51.2zM601.6 115.2v307.2h307.264L908.8 115.2H601.6zM422.4 960H115.2a51.264 51.264 0 0 1-51.2-51.2V601.6c0-28.224 22.976-51.2 51.2-51.2h307.2c28.224 0 51.2 22.976 51.2 51.2v307.2c0 28.224-22.976 51.2-51.2 51.2zM115.2 601.6v307.2h307.2V601.6H115.2z" fill="#8a8a8a" p-id="1337"></path><path d="M332.8 307.2a25.6 25.6 0 0 1-25.6 25.6H230.4a25.6 25.6 0 0 1-25.6-25.6V230.4a25.6 25.6 0 0 1 25.6-25.6h76.8a25.6 25.6 0 0 1 25.6 25.6v76.8zM819.2 307.2a25.6 25.6 0 0 1-25.6 25.6h-76.8a25.6 25.6 0 0 1-25.6-25.6V230.4a25.6 25.6 0 0 1 25.6-25.6h76.8a25.6 25.6 0 0 1 25.6 25.6v76.8zM332.8 793.6a25.6 25.6 0 0 1-25.6 25.6H230.4a25.6 25.6 0 0 1-25.6-25.6v-76.8a25.6 25.6 0 0 1 25.6-25.6h76.8a25.6 25.6 0 0 1 25.6 25.6v76.8zM612.416 878.4a25.6 25.6 0 0 1-25.6-25.6V588.8a25.6 25.6 0 1 1 51.2 0v264a25.6 25.6 0 0 1-25.6 25.6zM755.2 804.8a25.6 25.6 0 0 1-25.6-25.6V588.8a25.6 25.6 0 1 1 51.2 0v190.4a25.6 25.6 0 0 1-25.6 25.6zM896 960a25.6 25.6 0 0 1-25.6-25.6V588.8a25.6 25.6 0 1 1 51.2 0v345.6a25.6 25.6 0 0 1-25.6 25.6z" fill="#8a8a8a" p-id="1338"></path></svg>