<svg t="1602585470621" class="icon" viewBox="0 0 1024 1024" version="1.1" xmlns="http://www.w3.org/2000/svg" p-id="2722" width="200" height="200"><path d="M512 0C229.189818 0 0 229.189818 0 512s229.189818 512 512 512 512-229.189818 512-512S794.810182 0 512 0z m-6.516364 812.590545a43.287273 43.287273 0 1 1 0.046546-86.62109 43.287273 43.287273 0 0 1 0 86.62109zM691.293091 390.981818c-2.513455 46.312727-16.709818 82.850909-87.691636 153.832727-35.979636 35.979636-58.693818 62.976-60.974546 86.667637a36.026182 36.026182 0 1 1-71.726545-7.074909c4.887273-49.896727 41.518545-90.205091 81.780363-130.513455 64.512-64.512 65.629091-84.992 66.699637-106.682182a92.625455 92.625455 0 0 0-26.391273-69.12 112.360727 112.360727 0 0 0-81.175273-34.583272h-0.232727A107.659636 107.659636 0 0 0 404.293818 390.981818a35.979636 35.979636 0 1 1-72.005818 0c0-47.941818 18.618182-92.951273 52.410182-126.836363a178.269091 178.269091 0 0 1 126.696727-52.689455 184.785455 184.785455 0 0 1 133.818182 57.018182 163.374545 163.374545 0 0 1 46.08 122.461091z" fill="#FFBF00" p-id="2723"></path></svg>