<svg class="icon" viewBox="0 0 1024 1024" xmlns="http://www.w3.org/2000/svg" width="200" height="200"><path d="M512 0C229.19 0 0 229.19 0 512s229.19 512 512 512 512-229.19 512-512S794.81 0 512 0zm-6.516 812.59a43.287 43.287 0 11.046-86.62 43.287 43.287 0 010 86.62zm185.81-421.608c-2.514 46.313-16.71 82.85-87.693 153.833-35.98 35.98-58.693 62.976-60.974 86.667a36.026 36.026 0 11-71.727-7.075c4.888-49.896 41.519-90.205 81.78-130.513 64.513-64.512 65.63-84.992 66.7-106.682a92.625 92.625 0 00-26.39-69.12 112.36 112.36 0 00-81.176-34.584h-.233a107.66 107.66 0 00-107.287 107.474 35.98 35.98 0 11-72.006 0c0-47.942 18.618-92.951 52.41-126.837a178.27 178.27 0 01126.697-52.689 184.785 184.785 0 01133.818 57.018 163.375 163.375 0 0146.08 122.461z"/></svg>