<svg t="1608606621025" class="icon" viewBox="0 0 1024 1024" version="1.1" xmlns="http://www.w3.org/2000/svg" p-id="8450" width="200" height="200"><path d="M634.367939 585.574619l-89.651155-13.107193-40.08958-81.715159c-11.417594-23.347188-49.510375-23.347188-60.92797 0l-40.14078 81.715159-89.599955 13.107193a34.150383 34.150383 0 0 0-27.494386 23.244789 34.303983 34.303983 0 0 0 8.601595 35.020782l64.921568 63.641568-15.359992 89.855955a33.894383 33.894383 0 1 0 49.203175 36.044782l80.28156-42.444778 80.17916 42.444778a33.791983 33.791983 0 0 0 35.839982-2.611198 34.201583 34.201583 0 0 0 13.414393-33.382384l-15.257592-89.907155 64.870367-63.590368a34.099183 34.099183 0 1 0-18.79039-58.265571z m-106.239947 85.555157a34.252783 34.252783 0 0 0-9.727995 30.207985l6.655996 39.321581-35.071982-18.534391a33.791983 33.791983 0 0 0-31.641584 0l-35.123183 18.534391 6.707197-39.321581a34.303983 34.303983 0 0 0-9.727995-30.207985l-28.415986-27.852786 39.21918-5.785597a33.945583 33.945583 0 0 0 25.599988-18.68799l17.561591-35.737583 17.510391 35.737583c4.761598 9.983995 14.335993 16.998392 25.599987 18.68799l39.219181 5.785597-28.364786 27.852786z" fill="#5B8FF9" p-id="8451"></path><path d="M909.363001 52.224486a33.945583 33.945583 0 0 0-12.799993-47.462376 37.119981 37.119981 0 0 0-18.227191-4.761598h-237.567881a36.351982 36.351982 0 0 0-31.027185 17.049591l-126.975936 206.899097L367.872072 37.069293A36.351982 36.351982 0 0 0 336.844888 19.968502H147.456182a35.327982 35.327982 0 0 0-36.044782 34.611183c0 6.195197 1.689599 12.287994 4.966398 17.663991l171.007914 278.323061 0.4096-0.1536C181.248165 414.515505 109.670601 527.513848 109.670601 657.049783c0 199.7311 169.062315 362.342219 376.831812 362.342219a382.003009 382.003009 0 0 0 266.393467-106.239947c71.270364-68.505566 110.489545-159.59032 110.438344-256.153471 0-117.247941-59.13597-220.56949-149.196725-286.822257l195.225502-317.951841z m-118.118341 604.774098c0 78.079961-31.641584 151.654324-89.292755 207.001496a309.043045 309.043045 0 0 1-215.500692 86.015957c-168.038316 0-304.793448-131.430334-304.793448-293.017453 0-161.638319 136.755132-293.068653 304.793448-293.068654 168.038316 0 304.793448 131.481534 304.793447 293.068654zM486.451213 294.656365a387.583806 387.583806 0 0 0-134.502333 24.883187L210.432151 89.293267h105.881547L440.832036 292.096366l-4.556798 7.423996c16.537592-2.150399 32.972784-4.915198 50.175975-4.915197 11.775994 0 22.886389 2.355199 34.406383 3.379198l140.441529-228.710286h153.907123l-162.303918 264.294268c0.1024 0 0.1536 0.1024 0.255999 0.1536-50.483175-24.166388-106.598347-39.06558-166.758316-39.06558z" fill="#5B8FF9" p-id="8452"></path><path d="M524.543994 292.045166l-3.583998 5.939197c2.559999 0.3584 5.119997 0.512 7.679996 0.7168l-4.095998-6.655997z" fill="#000000" p-id="8453"></path></svg>