<svg t="1608606752561" class="icon" viewBox="0 0 1251 1024" version="1.1" xmlns="http://www.w3.org/2000/svg" p-id="8872" width="200" height="200"><path d="M1150.293333 27.420444H97.848889c-41.358222 0-75.776 33.735111-75.776 75.662223v86.072889a75.093333 75.093333 0 0 0 72.248889 75.093333v669.752889c0 47.445333 38.570667 86.016 86.072889 86.016h886.613333c47.502222 0 86.072889-38.570667 86.072889-86.016V264.192a75.093333 75.093333 0 0 0 72.248889-75.036444V103.139556A74.524444 74.524444 0 0 0 1150.293333 27.420444z m-1052.444444 75.662223h1052.444444v86.072889H97.848889V103.139556z m980.195555 830.919111a10.581333 10.581333 0 0 1-10.353777 10.296889H180.394667a10.581333 10.581333 0 0 1-10.296889-10.296889V264.192h907.946666v669.809778z" fill="#5B8FF9" p-id="8873"></path><path d="M272.668444 739.157333l0.682667-59.847111c19.285333 9.614222 53.703111 17.180444 77.084445 17.180445 29.582222 0 44.032-11.719111 44.032-33.735111 0-53.020444-119.068444-11.719111-119.068445-134.883556 0-54.385778 38.570667-87.438222 102.570667-87.438222 23.381333 0 48.184889 3.413333 73.671111 11.719111l-0.682667 57.116444c-21.333333-6.257778-50.972444-11.036444-66.787555-11.036444-24.803556 0-37.888 10.353778-37.888 29.582222 0 25.486222 25.486222 31.687111 56.490666 44.088889 33.735111 13.767111 62.577778 32.995556 62.577778 88.120889 0 58.481778-38.513778 95.004444-101.831111 95.004444-28.216889 0-57.799111-5.518222-90.851556-15.872zM494.933333 446.008889a504.604444 504.604444 0 0 1 79.189334-6.257778c96.369778 0 136.931556 32.426667 136.931555 109.511111 0 75.662222-39.879111 108.088889-132.835555 108.088889h-12.401778v92.16H494.990222V446.008889z m143.189334 103.253333c0-38.570667-12.401778-51.655111-53.020445-51.655111a148.48 148.48 0 0 0-19.285333 1.365333v99.84c5.518222 0.682667 14.449778 1.365333 20.650667 1.365334 39.253333 0.682667 51.655111-11.719111 51.655111-50.915556z m100.465777 83.968V444.529778h70.940445v183.808c0 47.502222 12.401778 66.104889 46.08 66.104889 34.417778 0 46.136889-17.237333 46.136889-66.104889v-183.751111h70.883555v188.586666c0 81.92-30.264889 121.173333-117.020444 121.173334-86.016-0.739556-117.020444-39.936-117.020445-121.173334z" fill="#5B8FF9" p-id="8874"></path></svg>