<svg class="icon" viewBox="0 0 1024 1024" xmlns="http://www.w3.org/2000/svg" width="200" height="200"><path d="M953.637 417.938L684.763 148.846C611.474 75.63 473.966 16.823 373.687 14.994c-56.54-3.657-245.76-11.483-306.03 48.64-77.385 77.385-58.295 269.897-53.98 303.982 3.438 101.083 64.513 238.738 139.045 313.125l269.02 268.946c39.57 39.497 92.16 61.44 147.968 61.66h.585a206.994 206.994 0 00147.31-60.929l236.763-236.69c39.643-39.497 61.44-92.16 61.074-148.114a208.238 208.238 0 00-61.805-147.749zm-58.368 236.69L658.65 891.393c-23.552 23.552-54.857 36.571-88.283 36.571a131.877 131.877 0 01-89.527-37.156l-269.02-269.02C152.358 562.322 99.914 444.71 96.988 361.18c-9.508-77.165-6.436-202.166 29.77-238.299 17.554-17.408 96.329-26.478 176.786-26.478 22.528 0 45.056.732 66.56 2.195 80.676 1.462 197.705 51.565 255.561 109.348l268.873 268.946c23.918 23.845 37.303 55.443 37.303 88.942.293 33.646-12.8 65.097-36.571 88.796zM301.787 279.407a165.815 165.815 0 00-49.005 118.272c0 44.69 17.408 86.6 48.932 118.199 31.598 31.597 73.582 49.005 118.2 49.005 44.616 0 86.6-17.408 118.198-49.005a166.034 166.034 0 0049.006-118.2c0-44.69-17.408-86.747-49.006-118.198-63.122-63.196-173.202-63.196-236.251 0zM479.086 456.85c-31.598 31.452-86.601 31.452-118.2 0a83.163 83.163 0 01-24.429-59.1c0-22.38 8.631-43.3 24.43-59.099a83.602 83.602 0 01118.199 118.126z" fill-opacity=".45"/></svg>